<svg width="378" height="378" viewBox="0 0 378 378" fill="none" xmlns="http://www.w3.org/2000/svg">
<path d="M45.0861 125.456C43.7136 124.082 41.8089 123.293 39.8672 123.293C37.9255 123.293 36.0215 124.083 34.6475 125.456C33.2736 126.829 32.4844 128.734 32.4844 130.676C32.4844 132.617 33.2736 134.522 34.6475 135.895C36.0207 137.269 37.9255 138.059 39.8672 138.059C41.8089 138.059 43.7136 137.269 45.0861 135.895C46.46 134.522 47.25 132.617 47.25 130.676C47.25 128.734 46.46 126.829 45.0861 125.456Z" fill="#CECECE"/>
<path d="M323.367 0H173.989C169.912 0 166.606 3.30602 166.606 7.38281C166.606 11.4596 169.912 14.7656 173.989 14.7656H323.367C327.438 14.7656 330.75 18.0776 330.75 22.1484V355.852C330.75 359.922 327.438 363.234 323.367 363.234H54.6328C50.5619 363.234 47.25 359.922 47.25 355.852V158.238C47.25 154.161 43.944 150.855 39.8672 150.855C35.7904 150.855 32.4844 154.161 32.4844 158.238V355.852C32.4844 368.064 42.4202 378 54.6328 378H323.367C335.58 378 345.516 368.064 345.516 355.852V22.1484C345.516 9.93579 335.58 0 323.367 0Z" fill="#CECECE"/>
<path d="M189 29.5312C183.977 29.5312 178.928 29.9152 173.995 30.6712C169.965 31.2898 167.199 35.0573 167.816 39.0876C168.434 43.1178 172.204 45.8805 176.233 45.2662C180.429 44.6225 184.724 44.2969 189 44.2969C235.002 44.2969 272.426 81.7218 272.426 127.723C272.426 148.152 265.042 166.884 252.807 181.404C247.394 172.094 239.999 164.064 231.024 157.835C225.786 154.2 220.158 151.298 214.266 149.151C220.99 142.578 225.176 133.418 225.176 123.294V116.096C225.176 96.1478 208.948 79.9197 189 79.9197C169.052 79.9197 152.824 96.1478 152.824 116.096V123.294C152.824 133.418 157.009 142.578 163.734 149.151C157.843 151.298 152.215 154.2 146.976 157.835C137.958 164.094 130.534 172.169 125.114 181.535C115.791 170.457 109.275 156.832 106.726 141.631C106.052 137.611 102.242 134.899 98.2239 135.571C94.2024 136.245 91.4892 140.052 92.1633 144.073C95.9595 166.709 107.711 187.428 125.253 202.413C142.995 217.569 165.634 225.916 188.999 225.916C243.143 225.916 287.191 181.867 287.191 127.724C287.191 73.5808 243.143 29.5312 189 29.5312ZM167.59 116.095C167.59 104.29 177.195 94.6846 189 94.6846C200.805 94.6846 210.41 104.29 210.41 116.095V123.294C210.41 135.099 200.805 144.704 189 144.704C177.195 144.704 167.59 135.099 167.59 123.294V116.095ZM189 211.15C169.012 211.15 150.533 204.17 136.07 192.337C145.983 172.217 166.25 159.469 189 159.469C211.703 159.469 231.931 172.165 241.867 192.212C227.465 204.04 209.047 211.15 189 211.15Z" fill="#CECECE"/>
<path d="M257.185 293.837H152.349C148.273 293.837 144.967 297.143 144.967 301.22C144.967 305.297 148.273 308.603 152.349 308.603H257.185C261.263 308.603 264.568 305.297 264.568 301.22C264.568 297.143 261.262 293.837 257.185 293.837Z" fill="#CECECE"/>
<path d="M126.032 254.655C124.659 253.281 122.754 252.492 120.812 252.492C118.871 252.492 116.966 253.282 115.593 254.655C114.22 256.029 113.43 257.933 113.43 259.875C113.43 261.823 114.22 263.721 115.593 265.094C116.966 266.468 118.871 267.258 120.812 267.258C122.754 267.258 124.659 266.468 126.032 265.094C127.413 263.721 128.195 261.817 128.195 259.875C128.195 257.933 127.413 256.029 126.032 254.655Z" fill="#CECECE"/>
<path d="M126.032 295.999C124.659 294.625 122.761 293.836 120.812 293.836C118.871 293.836 116.966 294.626 115.593 295.999C114.22 297.372 113.43 299.277 113.43 301.219C113.43 303.167 114.22 305.065 115.593 306.438C116.966 307.812 118.871 308.602 120.812 308.602C122.754 308.602 124.659 307.812 126.032 306.438C127.413 305.065 128.195 303.168 128.195 301.219C128.195 299.277 127.413 297.372 126.032 295.999Z" fill="#CECECE"/>
<path d="M257.185 252.494H152.349C148.273 252.494 144.967 255.8 144.967 259.876C144.967 263.953 148.273 267.259 152.349 267.259H257.185C261.263 267.259 264.568 263.953 264.568 259.876C264.568 255.8 261.262 252.494 257.185 252.494Z" fill="#CECECE"/>
<path d="M119.325 42.5464C116.441 39.6642 111.768 39.6642 108.884 42.5464L84.8411 66.5893L76.6248 58.3729C73.7403 55.4907 69.067 55.4907 66.1832 58.3729C63.3002 61.2567 63.3002 65.9315 66.1832 68.8145L79.62 82.2512C81.0618 83.6923 82.9503 84.4136 84.8403 84.4136C86.7303 84.4136 88.6189 83.6923 90.0615 82.2519L119.325 52.9879C122.208 50.1042 122.208 45.4294 119.325 42.5464Z" fill="#CECECE"/>
<path d="M93.0234 0C59.642 0 32.4844 27.1577 32.4844 60.5391C32.4844 93.9204 59.642 121.078 93.0234 121.078C126.405 121.078 153.562 93.9204 153.562 60.5391C153.562 27.1577 126.405 0 93.0234 0ZM93.0234 106.312C67.7838 106.312 47.25 85.7787 47.25 60.5391C47.25 35.2994 67.7838 14.7656 93.0234 14.7656C118.263 14.7656 138.797 35.2994 138.797 60.5391C138.797 85.7787 118.263 106.312 93.0234 106.312Z" fill="#CECECE"/>
</svg>
