<svg width="445" height="421" viewBox="0 0 445 421" fill="none" xmlns="http://www.w3.org/2000/svg">
<path d="M55.625 65.7812H69.5312V78.9375H55.625V65.7812Z" fill="#CECECE"/>
<path d="M83.4375 65.7812H97.3438V78.9375H83.4375V65.7812Z" fill="#CECECE"/>
<path d="M111.25 65.7812H125.156V78.9375H111.25V65.7812Z" fill="#CECECE"/>
<path d="M146.016 131.562H62.5781C60.734 131.562 58.9655 132.256 57.6615 133.489C56.3576 134.723 55.625 136.396 55.625 138.141V203.922C55.625 205.667 56.3576 207.34 57.6615 208.573C58.9655 209.807 60.734 210.5 62.5781 210.5H146.016C147.86 210.5 149.628 209.807 150.932 208.573C152.236 207.34 152.969 205.667 152.969 203.922V138.141C152.969 136.396 152.236 134.723 150.932 133.489C149.628 132.256 147.86 131.562 146.016 131.562ZM139.062 197.344H69.5312V144.719H139.062V197.344Z" fill="#CECECE"/>
<path d="M180.781 131.562H208.594V144.719H180.781V131.562Z" fill="#CECECE"/>
<path d="M222.5 131.562H333.75V144.719H222.5V131.562Z" fill="#CECECE"/>
<path d="M180.781 157.875H333.75V171.031H180.781V157.875Z" fill="#CECECE"/>
<path d="M180.781 184.188H250.312V197.344H180.781V184.188Z" fill="#CECECE"/>
<path d="M264.219 184.188H305.938V197.344H264.219V184.188Z" fill="#CECECE"/>
<path d="M55.625 236.812H152.969V249.969H55.625V236.812Z" fill="#CECECE"/>
<path d="M55.625 263.125H152.969V276.281H55.625V263.125Z" fill="#CECECE"/>
<path d="M55.625 289.438H152.969V302.594H55.625V289.438Z" fill="#CECECE"/>
<path d="M55.625 315.75H152.969V328.906H55.625V315.75Z" fill="#CECECE"/>
<path d="M410.234 125.583C404.968 122.629 398.953 121.082 392.83 121.108C386.708 121.133 380.707 122.73 375.469 125.728V59.2031C375.469 53.9692 373.271 48.9497 369.359 45.2488C365.447 41.5479 360.142 39.4688 354.609 39.4688H34.7656C29.2334 39.4688 23.9277 41.5479 20.0158 45.2488C16.1039 48.9497 13.9063 53.9692 13.9062 59.2031V361.797C13.9063 367.031 16.1039 372.05 20.0158 375.751C23.9277 379.452 29.2334 381.531 34.7656 381.531H354.609C360.142 381.531 365.447 379.452 369.359 375.751C373.271 372.05 375.469 367.031 375.469 361.797V248.331L422.958 170.512C427.559 162.955 428.803 153.981 426.418 145.558C424.032 137.135 418.212 129.951 410.234 125.583ZM270.094 315.75H194.687V249.969H294.18L275.83 280.044C275.142 281.167 274.822 282.459 274.913 283.754L276.387 305.462L270.094 315.75ZM279.057 327.38L286.01 315.987L298.053 322.565L291.099 333.958C290.171 335.457 288.653 336.547 286.878 336.991C285.103 337.435 283.215 337.197 281.624 336.328C280.034 335.46 278.872 334.031 278.391 332.355C277.91 330.679 278.149 328.89 279.057 327.38ZM307.808 312.698L290.161 303.061L289.09 287.273L322.785 305.692L307.808 312.698ZM330.955 294.937L318.912 288.359L371.06 202.909L359.018 196.331L306.869 281.781L294.826 275.202L353.928 178.359L390.084 198.094L330.955 294.937ZM360.853 166.966L364.33 161.276L400.486 181.01L397.009 186.707L360.853 166.966ZM34.7656 52.625H354.609C356.453 52.625 358.222 53.3181 359.526 54.5517C360.83 55.7853 361.562 57.4585 361.562 59.2031V92.3042H27.8125V59.2031C27.8125 57.4585 28.5451 55.7853 29.849 54.5517C31.153 53.3181 32.9215 52.625 34.7656 52.625ZM361.562 361.797C361.562 363.542 360.83 365.215 359.526 366.448C358.222 367.682 356.453 368.375 354.609 368.375H34.7656C32.9215 368.375 31.153 367.682 29.849 366.448C28.5451 365.215 27.8125 363.542 27.8125 361.797V105.46H361.562V139.562L302.211 236.812H187.734C185.89 236.812 184.122 237.506 182.818 238.739C181.514 239.973 180.781 241.646 180.781 243.391V322.328C180.781 324.073 181.514 325.746 182.818 326.98C184.122 328.213 185.89 328.906 187.734 328.906H264.358C263.954 333.37 265.168 337.832 267.8 341.556C270.433 345.281 274.326 348.047 278.841 349.401C283.355 350.754 288.222 350.614 292.642 349.003C297.061 347.392 300.769 344.406 303.156 340.536L312.529 325.17L333.11 315.539C334.345 314.958 335.369 314.042 336.051 312.908L361.562 271.117V361.797ZM410.93 163.933L407.453 169.63L371.297 149.896L374.773 144.199C377.539 139.663 382.097 136.352 387.443 134.995C392.789 133.638 398.487 134.346 403.281 136.963C408.076 139.58 411.575 143.892 413.01 148.95C414.444 154.008 413.696 159.397 410.93 163.933Z" fill="#CECECE"/>
</svg>
